<?xml version="1.0" encoding="utf-8"?>
<!-- Generator: Adobe Illustrator 16.0.0, SVG Export Plug-In . SVG Version: 6.00 Build 0) -->
<!DOCTYPE svg PUBLIC "-//W3C//DTD SVG 1.1//EN" "http://www.w3.org/Graphics/SVG/1.1/DTD/svg11.dtd">
<svg version="1.1" id="Camada_1" xmlns="http://www.w3.org/2000/svg" xmlns:xlink="http://www.w3.org/1999/xlink" x="0px" y="0px" width="960px" height="560px" viewBox="0 0 960 560" xml:space="preserve">
	<path stroke="#000000" stroke-miterlimit="10" d="M465.79,464.103H235.945c-9.326-0.146-17.123,7.059-17.709,16.367
	c-0.307,9.384,7.052,17.239,16.436,17.546c0.003,0,0.005,0.001,0.008,0.001h53.665c-0.214,15.487-12.809,27.941-28.298,27.981
	h-47.417c-15.629,0-28.299-12.669-28.299-28.298V283.56c0-10.057-8.152-18.208-18.208-18.208h-18.16
	c-10.643,0-19.274-8.619-19.291-19.262v-2.77c0-10.654,8.637-19.291,19.291-19.291h33.837c13.119,0,17.709-10.828,23.718-23.718
	c0,0,69.247-131.698,78.417-142.92c17.786-5.3,86.396-23.717,195.407-23.718c-0.063-1.746-0.093-3.493-0.073-5.24
	c0.037-3.373,0.141-6.75,0.452-10.111c0.158-1.708,0.34-3.408,0.546-5.111c0.512-3.15,0.589-3.887,0.232-2.212v-0.5
	c0-1.629,0.301-3.062,0.814-4.316l-1.934-6.195c-132.887,0-208.094,25.539-211.247,26.65c-3.725,1.285-6.883,3.831-8.931,7.197
	c-8.932,10.589-48.931,60.794-91.039,156.125h-20.201c-29.426,0-53.281,23.855-53.281,53.281v2.875
	c0,29.427,23.855,53.281,53.281,53.281h2.3v198.368c0.047,34.381,27.908,62.241,62.29,62.289h47.426
	c34.259-0.047,62.068-27.715,62.29-61.974h142.965C461.755,487.42,463.627,475.091,465.79,464.103z" />
	<g>
		<clipPath id="SVGID_2_">
			<use xlink:href="#SVGID_1_" overflow="visible" />
		</clipPath>
		<path clip-path="url(#SVGID_2_)" d="M460.781,349.688h69.938c19.232,0,34.969,15.736,34.969,34.969V559.5h104.906
		c19.232,0,34.969-15.736,34.969-34.969V314.719h34.969c19.862,0,34.969-15.281,34.969-34.969c0-15.316-8.323-23.604-19.232-34.969
		l-50.705-50.67V69.938c0-19.233-15.736-34.969-34.969-34.969h-34.969c-19.232,0-34.969,15.736-34.969,34.969v19.337l-69.938-69.868
		C521.172,10.386,512.43,0,495.75,0s-25.422,10.386-34.969,19.407" />
		<path clip-path="url(#SVGID_2_)" d="M425.813,559.5" />
		<path clip-path="url(#SVGID_2_)" d="M221.464,267.73" />
	</g>
	<line fill="none" stroke="#000000" stroke-width="20" stroke-miterlimit="10" x1="457.674" y1="-3" x2="457.674" y2="556.5" />
</svg>
