<?xml version="1.0" encoding="UTF-8" standalone="no"?>
<!-- Generator: Adobe Illustrator 16.0.0, SVG Export Plug-In . SVG Version: 6.00 Build 0)  -->

<svg
   xmlns:dc="http://purl.org/dc/elements/1.1/"
   xmlns:cc="http://creativecommons.org/ns#"
   xmlns:rdf="http://www.w3.org/1999/02/22-rdf-syntax-ns#"
   xmlns:svg="http://www.w3.org/2000/svg"
   xmlns="http://www.w3.org/2000/svg"
   xmlns:xlink="http://www.w3.org/1999/xlink"
   xmlns:sodipodi="http://sodipodi.sourceforge.net/DTD/sodipodi-0.dtd"
   xmlns:inkscape="http://www.inkscape.org/namespaces/inkscape"
   version="1.1"
   id="Camada_1"
   x="0px"
   y="0px"
   width="68.0737"
   height="55.995144"
   viewBox="0 0 68.0737 55.995144"
   enable-background="new 0 0 960 560"
   xml:space="preserve"
   sodipodi:docname="delivery.svg"
   inkscape:version="0.92.4 (5da689c313, 2019-01-14)"><metadata
   id="metadata3837"><rdf:RDF><cc:Work
       rdf:about=""><dc:format>image/svg+xml</dc:format><dc:type
         rdf:resource="http://purl.org/dc/dcmitype/StillImage" /></cc:Work></rdf:RDF></metadata><defs
   id="defs3835" /><sodipodi:namedview
   pagecolor="#ffffff"
   bordercolor="#666666"
   borderopacity="1"
   objecttolerance="10"
   gridtolerance="10"
   guidetolerance="10"
   inkscape:pageopacity="0"
   inkscape:pageshadow="2"
   inkscape:window-width="1842"
   inkscape:window-height="1051"
   id="namedview3833"
   showgrid="false"
   inkscape:zoom="6.7428571"
   inkscape:cx="13.162383"
   inkscape:cy="53.549743"
   inkscape:window-x="69"
   inkscape:window-y="-9"
   inkscape:window-maximized="1"
   inkscape:current-layer="Camada_1" />
<path
   stroke-miterlimit="10"
   d="M 36.923449,46.411722 H 14.085877 c -0.926638,-0.0145 -1.701354,0.70138 -1.75958,1.62623 -0.0305,0.9324 0.700692,1.71288 1.633094,1.74339 2.98e-4,0 4.97e-4,10e-5 7.95e-4,10e-5 h 5.332194 c -0.02126,1.5388 -1.272712,2.77624 -2.81171,2.78021 h -4.711389 c -1.552909,0 -2.8118099,-1.2588 -2.8118099,-2.81171 v -21.27711 c 0,-0.99927 -0.8099888,-1.80916 -1.8091605,-1.80916 H 5.3439193 c -1.0574965,0 -1.9150791,-0.85639 -1.9167683,-1.91389 v -0.27523 c 0,-1.05859 0.8581789,-1.91677 1.9167683,-1.91677 h 3.3620698 c 1.3035139,0 1.7595799,-1.07588 2.3566379,-2.35664 0,0 6.880434,-13.0856099 7.791572,-14.2006299 1.767231,-0.52662 8.584372,-2.35654 19.415787,-2.35664 -0.0063,-0.17349 -0.0092,-0.34707 -0.0073,-0.52065 0.0037,-0.33515 0.01401,-0.67069 0.04491,-1.00464 0.0157,-0.16971 0.03378,-0.33862 0.05425,-0.50783 0.05087,-0.31299 0.05852,-0.38622 0.02305,-0.21979 v -0.0497 c 0,-0.16186 0.02991,-0.30424 0.08088,-0.42883999 l -0.192164,-0.61554 c -13.203752,0 -20.676376,2.53757999 -20.989661,2.64795999 -0.370118,0.12768 -0.6839,0.38066 -0.88739,0.7151 -0.887491,1.05214 -4.861821,6.04054 -9.0457039,15.5126999 H 5.3437206 c -2.9237895,0 -5.29404023,2.37025 -5.29404023,5.29404 v 0.28566 c 0,2.92389 2.37025073,5.29404 5.29404023,5.29404 h 0.2285297 v 19.71 c 0.00467,3.41612 2.7729599,6.18431 6.1891817,6.18908 h 4.712283 c 3.404,-0.005 6.167123,-2.75378 6.189181,-6.15778 h 14.20511 c -0.345478,-1.05919 -0.159474,-2.28421 0.05544,-3.37598 z"
   id="path3814"
   inkscape:connector-curvature="0"
   style="stroke:#000000;stroke-width:0.09936075;stroke-miterlimit:10" />
<g
   id="g3828"
   transform="matrix(0.09936075,0,0,0.09936075,-8.9805616,0.29809211)"
   style="fill:#000000">
	<clipPath
   id="SVGID_2_">
		<use
   xlink:href="#SVGID_1_"
   overflow="visible"
   id="use3819"
   style="overflow:visible"
   x="0"
   y="0"
   width="100%"
   height="100%" />
	</clipPath>
	<path
   clip-path="url(#SVGID_2_)"
   d="m 460.781,349.688 h 69.938 c 19.232,0 34.969,15.736 34.969,34.969 V 559.5 h 104.906 c 19.232,0 34.969,-15.736 34.969,-34.969 V 314.719 h 34.969 c 19.862,0 34.969,-15.281 34.969,-34.969 0,-15.316 -8.323,-23.604 -19.232,-34.969 l -50.705,-50.67 V 69.938 c 0,-19.233 -15.736,-34.969 -34.969,-34.969 h -34.969 c -19.232,0 -34.969,15.736 -34.969,34.969 V 89.275 L 530.719,19.407 C 521.172,10.386 512.43,0 495.75,0 479.07,0 470.328,10.386 460.781,19.407"
   id="path3822"
   inkscape:connector-curvature="0"
   style="fill:#000000" />
	<path
   clip-path="url(#SVGID_2_)"
   d="M 425.813,559.5"
   id="path3824"
   inkscape:connector-curvature="0"
   style="fill:#000000" />
	<path
   clip-path="url(#SVGID_2_)"
   d="M 221.464,267.73"
   id="path3826"
   inkscape:connector-curvature="0"
   style="fill:#000000" />
</g>
<line
   stroke-miterlimit="10"
   x1="37.487881"
   y1="0"
   x2="37.487881"
   y2="55.592346"
   id="line3830"
   style="fill:none;stroke:#000000;stroke-width:1.98721504;stroke-miterlimit:10" />
</svg>