<svg xmlns="http://www.w3.org/2000/svg" viewBox="0 0 36.002 36">
    <defs>
        <style>.a{fill:none;}.b{fill:#3c3c3c;}</style>
    </defs>
    <g transform="translate(-417 -273)">
        <path class="b" d="M4.644,18.339A5.508,5.508,0,0,1,2.01,16.647,5.612,5.612,0,0,1,.667,13.794a10.389,10.389,0,0,1,.008-2.058l.058-.319H.366c-.193,0-.366-.029-.366-.059a6.243,6.243,0,0,1,.373-1.28,5.381,5.381,0,0,1,1.89-2.306,7.578,7.578,0,0,1,3.13-1.189,2.729,2.729,0,0,1,.457-.051.187.187,0,0,1,.053,0s0,0,.009,0c.041,0,.16-.113.272-.257a1.109,1.109,0,0,1,.829-.527.875.875,0,0,1,.6.276,2.006,2.006,0,0,0,.9.477c.015,0,.154.03.31.067a9.22,9.22,0,0,0,1.945.181,5.75,5.75,0,0,0,1.259-.106,2.065,2.065,0,0,0,1.367-.944A30.232,30.232,0,0,1,18.44,2.92a6.259,6.259,0,0,1,2.408-.691,2.4,2.4,0,0,1,.8.14,1.814,1.814,0,0,1,.9.727c.01.035.023.067.055.067a.394.394,0,0,0,.161-.083c.152-.105.2-.231.272-.673a1.368,1.368,0,0,0,.008-.72,2.9,2.9,0,0,0-1.08-.861,4.8,4.8,0,0,0-.69.2c-.178.059-.789.261-1.131.364l-.554.173-.224-.242a.572.572,0,0,1-.174-.268c0-.007,0-.016.009-.019.053-.036,2.038-.622,2.363-.7l.007,0a.713.713,0,0,1,.069-.018l.006,0,.01,0L21.75.28h.005l.019-.006c.117-.033.263-.076.4-.121L22.362.1c.2-.06.328-.1.332-.1h0c.054,0,.209.147,1.033.983l.287.3.246-.129a1.361,1.361,0,0,1,.621-.123,3.485,3.485,0,0,1,1.156.229.806.806,0,0,1,.57.513,3.465,3.465,0,0,1,.417,1.522A2.473,2.473,0,0,1,26.612,4.4c-.1.106.173.625,1.39,2.641.064.105.113.152.162.152a.1.1,0,0,0,.061-.023,6.008,6.008,0,0,1,1.332-.415,4.907,4.907,0,0,1,.675-.044,6.127,6.127,0,0,1,2.279.428c.142.066.209.1.212.134s-.02.045-.077.085c-.032.027-.053.051-.05.077,0,.053.106.117.391.271A5.016,5.016,0,0,1,34.49,8.9a5.457,5.457,0,0,1,1.475,3.668,5.5,5.5,0,0,1-.906,3.428,5.458,5.458,0,0,1-3.017,2.316,3.982,3.982,0,0,1-1.4.173,4.379,4.379,0,0,1-2.477-.56,6.028,6.028,0,0,1-1.773-1.452,5.814,5.814,0,0,1-.979-1.862,4.735,4.735,0,0,1-.243-1.837v-.81l-.2.142a.809.809,0,0,1-.239.144s-.007,0-.013-.007A3.681,3.681,0,0,1,24.9,10.97a.529.529,0,0,0,.073-.173A6.5,6.5,0,0,1,26.21,8.579l.437-.557L26.6,7.946a.873.873,0,0,1-.113-.315l-.8-1.42c-.526-.916-1.011-1.735-1.024-1.739a2.886,2.886,0,0,0-.071.439l-.006.057-.008.075,0,.031c-.032.274-.057.473-.127.895l0,.025c-.019.131-.045.305-.071.478l-.04.26c-.018.123-.035.239-.051.341-.012.074-.022.14-.029.2s-.017.109-.021.139c-.012.086-.031.2-.046.3l-.007.049-.011.064c0,.027-.007.061-.014.109s-.015.107-.022.162l-.013.083-.006.047-.007.046-.011.062c-.011.087-.036.253-.073.48,0,.019-.007.04-.011.059v.006c-.005.027-.01.055-.014.081l-.017.106c-.012.071-.023.142-.035.212-.112.615-.223,1.314-.29,1.764-.058.382-.11.7-.257,1.475-.007.041-.013.08-.022.122a.921.921,0,0,0-.018.1.9.9,0,0,0-.018.1c-.074.379-.112.583-.124.661a8.525,8.525,0,0,1-.689,1.952,2.226,2.226,0,0,1-1.967,1l-.167.018h-.027c-.262.028-.541.054-.669.065s-.377.04-.636.059l-.008,0-.059,0-.058,0-.175.014c-.348.022-.76.059-.9.075-.367.046-1.091.062-1.6.062a7.473,7.473,0,0,1-1.077-.047c-.158-.035-.355-.082-.418-.1a3.284,3.284,0,0,1-.935-.47,2.381,2.381,0,0,1-.837-1.4l-.007-.039c-.052-.384-.054-.4-.754-.4h-.982l-.056.242a5.816,5.816,0,0,1-.814,1.679,5.542,5.542,0,0,1-3.284,2.2,4.848,4.848,0,0,1-.978.082A5.933,5.933,0,0,1,4.644,18.339Zm22.311-5.5a3.681,3.681,0,0,0,1.005,2.551,3.334,3.334,0,0,0,2.429,1.057,3.528,3.528,0,0,0,3.433-3.608,3.526,3.526,0,0,0-3.433-3.606,3.276,3.276,0,0,0-1.022.163l1.6,2.691a.874.874,0,0,1-.257,1.169.785.785,0,0,1-1.113-.27l-1.616-2.717A3.686,3.686,0,0,0,26.955,12.838Zm-24.233,0a3.68,3.68,0,0,0,1,2.551,3.33,3.33,0,0,0,2.43,1.057,3.468,3.468,0,0,0,3.3-2.611H6.209a.849.849,0,0,1-.3-1.642.245.245,0,0,1,.023-.021L8.29,10.015a3.313,3.313,0,0,0-2.134-.784A3.527,3.527,0,0,0,2.722,12.838Zm5.707-.7H9.523a3.734,3.734,0,0,0-.239-.782Z" transform="translate(417 282.25)"/>
    </g>
</svg>