<svg xmlns="http://www.w3.org/2000/svg" viewBox="0 0 36.002 36">
    <defs>
        <style>.a{fill:none;}.b{fill:#3c3c3c;}</style>
    </defs>
    <g transform="translate(-370 -274)">
        <path class="b" d="M23974.094,62.139a3.25,3.25,0,1,1,3.25,3.251A3.252,3.252,0,0,1,23974.094,62.139Zm-20.895,0a3.251,3.251,0,1,1,3.252,3.251A3.253,3.253,0,0,1,23953.2,62.139Zm24.127-4.575a5.385,5.385,0,0,0-5.314,4.484l-10.445.006a5.39,5.39,0,0,0-10.629,0c-2.885.006-2.885-3.19-1.35-3.19v-.8a4.609,4.609,0,0,1,1.029-2.907l4.727-6.658a2.431,2.431,0,0,1,2.166-1.15h12.449a2.447,2.447,0,0,1,2.172,1.15l3.527,4.966h5.959a1.839,1.839,0,0,1,1.836,1.836v3.557c1.6.006,1.6,3.2-.812,3.2A5.39,5.39,0,0,0,23977.326,57.564Zm-11.738-7.922v3.13a.687.687,0,0,0,.693.686h6.549c.379,0,.469-.307.205-.686l-2.367-3.323c-.348-.457-.486-.494-.873-.494h-3.514A.687.687,0,0,0,23965.588,49.642Zm-8.139-.2-2.365,3.329c-.266.379-.18.686.205.686h8.035a.687.687,0,0,0,.688-.686V49.636a.687.687,0,0,0-.687-.686h-5.008C23957.938,48.95,23957.793,48.986,23957.449,49.444Z" transform="translate(-23578.564 235.652)"/>
    </g>
</svg>