<svg xmlns="http://www.w3.org/2000/svg" width="84.249" height="78.365" viewBox="0 0 84.249 78.365"><defs><style>.a{fill:#505050;}</style></defs><path class="a" d="M88.036,54.358c-.067-.051-6.277-4.908-8.2-8.372a8.217,8.217,0,0,0,1.354-.308,11.806,11.806,0,0,0,5.148-3.6l.43-.544-.447-.527c-2.406-2.852-5.155-4.336-8.168-4.41-3.947-.1-7.253,2.253-8.815,3.6q-.441-2.843-1.133-5.547C64.571,20.45,56,13.349,45.351,9.677a23.836,23.836,0,0,0-15.756,0C18.952,13.349,10.376,20.45,6.747,34.649A59.574,59.574,0,0,0,5.36,42.012c-.019.144-.038.287-.056.432C3.949,54.123,7.093,64.787,15.187,74.351A35.9,35.9,0,0,0,22.634,81a32.057,32.057,0,0,0,5.618,3.154,19.393,19.393,0,0,0,5.486,2.131l.157.055h.121a16.933,16.933,0,0,0,6.977,0h.059l.078-.027a19.415,19.415,0,0,0,5.779-2.251A32.151,32.151,0,0,0,52.315,81a35.922,35.922,0,0,0,7.444-6.645c6.511-7.693,9.812-16.1,10.152-25.173a20.6,20.6,0,0,0,1.582,1.852,1.766,1.766,0,0,0,1.757.618,1.256,1.256,0,0,0,.6-.414c1.877,2.885,6.023,7.135,13.333,4.8.205-.064.411-.134.62-.212l1.448-.523ZM17.869,26.438H57.078c4.886,0,4.886,5.753,5.767,11.053H59.5a11.8,11.8,0,0,0-2.652-1.237c-6.189-1.973-12.6,3.376-19.708,3.409-6.84.031-13.632-4.837-20.493-3.1a8,8,0,0,0-2.2.93H12.1C12.984,32.192,12.984,26.439,17.869,26.438ZM55.518,46.923c-3.308,4.939-9.318,5.2-12.87.555C45.65,43.026,51.845,42.759,55.518,46.923Zm-23.341.461c-3.724,4.6-8.938,4.473-13.016-.18C22.281,42.858,28.488,42.855,32.178,47.384Zm23.9,22.978c-.133.157-.268.311-.4.465A32.621,32.621,0,0,1,41.23,80.254a9.607,9.607,0,0,1-1.609.379,16.625,16.625,0,0,1-1.834.15c-.1,0-.21.007-.315.006s-.21,0-.315-.006a16.851,16.851,0,0,1-1.834-.15,9.818,9.818,0,0,1-1.609-.379,32.636,32.636,0,0,1-14.446-9.428c-.135-.153-.27-.306-.4-.462A37.937,37.937,0,0,1,11.3,54.624c-.039-.161.155-.376.281-.656h.6c2.421,3.822,6.807,6.605,12.414,7.3A7.537,7.537,0,0,0,32.229,58.2c4.593-5.9,5.647-5.9,10.271-.037,2.184,2.77,4.81,4.058,7.927,2.953,3.654-1.295,7.6-2.713,10.425-5.2a12.126,12.126,0,0,0,1.754-1.953h.761c.126.28.319.5.281.656A37.915,37.915,0,0,1,56.078,70.362Z" transform="translate(-5 -8.337)"/></svg>