<svg xmlns="http://www.w3.org/2000/svg" xmlns:xlink="http://www.w3.org/1999/xlink" width="80" height="84.616" viewBox="0 0 80 84.616"><defs><style>.a{fill:url(#a);}.b{fill:#7b7b7b;}</style><linearGradient id="a" x1="0.5" y1="0.566" x2="0.5" y2="1.054" gradientUnits="objectBoundingBox"><stop offset="0" stop-color="#f79020"/><stop offset="1" stop-color="#e95526"/></linearGradient></defs><g transform="translate(-960 -273)"><path class="a" d="M173.092,14a5.3,5.3,0,0,0-1.228-1.38l-3.683-9.79h0A5.116,5.116,0,0,0,164.176,0h-18.07A5.147,5.147,0,0,0,142.1,2.825l-3.683,9.79A6.218,6.218,0,0,0,137.189,14c-.323.635-.689,1.226-.689,5.563,0,4.227.862,5.738,1.874,6.264l.818.46V30.2c0,1.27.3,1.643,1.529,1.643h2.735c1.228,0,1.529-.372,1.529-1.643v-3.92H165.3V30.2c0,1.27.3,1.643,1.529,1.643h2.735c1.228,0,1.529-.372,1.529-1.643v-3.92l.818-.46c1.034-.526,1.874-2.037,1.874-6.264C173.782,15.221,173.415,14.63,173.092,14Zm-29.377,7.6a2.409,2.409,0,1,1,2.369-2.409h0A2.383,2.383,0,0,1,143.715,21.595Zm22.938,0a2.409,2.409,0,1,1,2.369-2.409A2.383,2.383,0,0,1,166.653,21.595Zm2.649-8.98H140.98s-.668.066-.474-.679c.172-.613,2.606-6.768,3.123-8.454A3.251,3.251,0,0,1,146.6,1.665H163.68a3.251,3.251,0,0,1,2.972,1.818c.517,1.686,2.951,7.841,3.123,8.454.194.745-.474.679-.474.679Z" transform="translate(845.247 299.408)"/><g transform="translate(960 273)"><path class="b" d="M78.447,43.02a1.558,1.558,0,0,0-1.553,1.553A36.893,36.893,0,1,1,37.049,7.757L34.8,9.388a1.711,1.711,0,0,0-.7,1.243,1.168,1.168,0,0,0,.311.854h0a1.592,1.592,0,0,0,2.175.388l6.369-4.427a1.43,1.43,0,0,0,.621-1.4,1.819,1.819,0,0,0-.621-1.4L36.583.223h0a1.592,1.592,0,0,0-2.175.388h0A1.592,1.592,0,0,0,34.8,2.787l2.563,1.864A40,40,0,1,0,80,44.573,1.558,1.558,0,0,0,78.447,43.02Z" transform="translate(0 0.043)"/><circle class="b" cx="1.942" cy="1.942" r="1.942" transform="translate(48.155 5.393)"/><circle class="b" cx="1.942" cy="1.942" r="1.942" transform="translate(76.117 36.461)"/><circle class="b" cx="1.942" cy="1.942" r="1.942" transform="translate(73.786 27.917)"/><circle class="b" cx="1.942" cy="1.942" r="1.942" transform="translate(69.126 20.15)"/><circle class="b" cx="1.942" cy="1.942" r="1.942" transform="translate(62.913 13.16)"/><circle class="b" cx="1.942" cy="1.942" r="1.942" transform="translate(55.922 8.499)"/></g></g></svg>