<svg xmlns="http://www.w3.org/2000/svg" width="180" height="74.853" viewBox="0 0 180.001 64">
	<defs>
		<style>
			.a{fill:#010101;}.b{fill:#fecf0a;}
		</style>
	</defs>
	<g id="layer_letters" transform="translate(0.029 -0.042)">
		<path class="a" d="M15.7,58.526l1.678-.992c1.144,2.136,2.518,3.2,4.043,3.2a3.624,3.624,0,0,0,1.831-.458,2.882,2.882,0,0,0,1.3-1.221,3.2,3.2,0,0,0,.458-1.6,3.083,3.083,0,0,0-.687-1.907,17.293,17.293,0,0,0-3.357-3.128,17.925,17.925,0,0,1-3.052-2.67,4.9,4.9,0,0,1-1.068-2.975,4.661,4.661,0,0,1,.61-2.289,5.043,5.043,0,0,1,1.678-1.678,5.216,5.216,0,0,1,5.035.076A8.661,8.661,0,0,1,26.686,45.4l-1.6,1.221a7.314,7.314,0,0,0-1.907-1.907A3.267,3.267,0,0,0,21.5,44.26a2.659,2.659,0,0,0-1.907.687,2.209,2.209,0,0,0-.763,1.755,3.163,3.163,0,0,0,.229,1.221,4.512,4.512,0,0,0,.992,1.3A31.345,31.345,0,0,0,22.566,51.2a14.938,14.938,0,0,1,3.509,3.357,5.6,5.6,0,0,1,.915,2.9,4.8,4.8,0,0,1-1.6,3.662,5.3,5.3,0,0,1-3.891,1.6,5.641,5.641,0,0,1-3.2-.915A10.722,10.722,0,0,1,15.7,58.526Z" transform="translate(-3.73 -9.996)" />
		<path class="a" d="M36,42.8H47.138v1.907H37.907v6.1h9.155v1.907H37.907v7.629h9.155v1.907H36Z" transform="translate(-8.543 -10.138)" />
		<path class="a" d="M53.9,62.23,56.646,42.7h.305l7.934,16.021L72.743,42.7h.305l2.823,19.454H73.964L72.057,48.269,65.191,62.23h-.534L57.638,48.193,55.731,62.23Z" transform="translate(-12.787 -10.115)" />
		<path class="a" d="M87.4,42.7h1.984V62.154H87.4Z" transform="translate(-20.73 -10.115)" />
		<path class="a" d="M95.9,62.254V42.8h.458l12.969,14.953V42.8h1.907V62.254h-.458l-12.893-14.8V62.177Z" transform="translate(-22.746 -10.138)" />
		<path class="a" d="M131.146,42.1a10.005,10.005,0,0,1,7.4,2.975A10.277,10.277,0,0,1,123.975,59.57,9.733,9.733,0,0,1,121,52.4a10.147,10.147,0,0,1,1.373-5.188,9.776,9.776,0,0,1,3.738-3.738A9.6,9.6,0,0,1,131.146,42.1Zm.076,1.831a8,8,0,0,0-4.12,1.144,8.362,8.362,0,0,0-3.052,3.052,8.869,8.869,0,0,0-1.068,4.272,8.066,8.066,0,0,0,2.441,5.874,7.826,7.826,0,0,0,5.8,2.365,8.791,8.791,0,0,0,4.2-1.068,7.953,7.953,0,0,0,2.975-2.975,8.869,8.869,0,0,0,1.068-4.272,8.572,8.572,0,0,0-1.068-4.2,7.64,7.64,0,0,0-3.052-2.975A7.239,7.239,0,0,0,131.223,43.931Z" transform="translate(-28.697 -9.972)" />
		<path class="a" d="M151.1,42.7h2.136l6.485,15.029L166.282,42.7h2.136L159.95,62.23h-.458Z" transform="translate(-35.834 -10.115)" />
		<path class="a" d="M187.046,42a10.005,10.005,0,0,1,7.4,2.975A10.277,10.277,0,0,1,179.875,59.47,9.733,9.733,0,0,1,176.9,52.3a10.147,10.147,0,0,1,1.373-5.188,9.776,9.776,0,0,1,3.738-3.738A9.6,9.6,0,0,1,187.046,42Zm.076,1.907A8,8,0,0,0,183,45.052a8.362,8.362,0,0,0-3.052,3.052,8.869,8.869,0,0,0-1.068,4.272,8.066,8.066,0,0,0,2.441,5.874,7.826,7.826,0,0,0,5.8,2.365,8.791,8.791,0,0,0,4.2-1.068,7.953,7.953,0,0,0,2.975-2.975,8.869,8.869,0,0,0,1.068-4.272,8.572,8.572,0,0,0-1.068-4.2,7.64,7.64,0,0,0-3.052-2.975A7.239,7.239,0,0,0,187.123,43.907Z" transform="translate(-41.951 -9.949)" />
		<path class="a" d="M206.3,58.426l1.678-.992c1.144,2.136,2.518,3.2,4.043,3.2a3.624,3.624,0,0,0,1.831-.458,2.882,2.882,0,0,0,1.3-1.221,3.2,3.2,0,0,0,.458-1.6,3.083,3.083,0,0,0-.687-1.907,17.294,17.294,0,0,0-3.357-3.128,17.925,17.925,0,0,1-3.052-2.67,4.9,4.9,0,0,1-1.068-2.975,4.66,4.66,0,0,1,.61-2.289,5.043,5.043,0,0,1,1.678-1.678,5.216,5.216,0,0,1,5.035.076,8.661,8.661,0,0,1,2.518,2.518l-1.6,1.221a7.314,7.314,0,0,0-1.907-1.907,3.267,3.267,0,0,0-1.678-.458,2.659,2.659,0,0,0-1.907.687,2.209,2.209,0,0,0-.763,1.755,3.163,3.163,0,0,0,.229,1.221,4.511,4.511,0,0,0,.992,1.3,31.341,31.341,0,0,0,2.518,1.984,14.939,14.939,0,0,1,3.509,3.357,5.6,5.6,0,0,1,.915,2.9,4.8,4.8,0,0,1-1.6,3.662,5.3,5.3,0,0,1-3.891,1.6,5.641,5.641,0,0,1-3.2-.915A12,12,0,0,1,206.3,58.426Z" transform="translate(-48.922 -9.972)" />
		<g transform="translate(141.971 56.042)">
			<path class="a" d="M186.61,81.4a1.084,1.084,0,0,1,.458.153c.153.153.153.229.153.458a1.084,1.084,0,0,1-.153.458c-.153.153-.229.153-.458.153a1.084,1.084,0,0,1-.458-.153c-.153-.153-.153-.229-.153-.458a1.084,1.084,0,0,1,.153-.458A.561.561,0,0,1,186.61,81.4Z" transform="translate(-186 -74.773)" />
			<path class="a" d="M194.645,76.844l-.534.381a2.36,2.36,0,0,0-1.984-.915,2.513,2.513,0,0,0-1.678.61,2.033,2.033,0,0,0-.687,1.526,2.153,2.153,0,0,0,.305,1.144,2.216,2.216,0,0,0,.839.839,2.153,2.153,0,0,0,1.144.305,2.568,2.568,0,0,0,1.984-.915l.534.381a2.537,2.537,0,0,1-1.068.915,3.213,3.213,0,0,1-1.526.305,3,3,0,0,1-2.136-.839A2.77,2.77,0,0,1,189,78.6a3.156,3.156,0,0,1,.381-1.449,2.41,2.41,0,0,1,1.068-1.068,3.473,3.473,0,0,1,1.526-.381,5.151,5.151,0,0,1,1.068.153,1.818,1.818,0,0,1,.839.458A.83.83,0,0,1,194.645,76.844Z" transform="translate(-186.711 -73.422)" />
			<path class="a" d="M200.623,75.5a2.612,2.612,0,0,1,2.06.915,2.96,2.96,0,0,1,0,3.967,2.948,2.948,0,0,1-4.12,0A2.7,2.7,0,0,1,197.8,78.4a2.824,2.824,0,0,1,.763-1.984A2.612,2.612,0,0,1,200.623,75.5Zm0,.687a2.086,2.086,0,0,0-2.136,2.136,1.752,1.752,0,0,0,.305,1.068,1.839,1.839,0,0,0,.763.763,2.483,2.483,0,0,0,1.068.305,1.752,1.752,0,0,0,1.068-.305,1.839,1.839,0,0,0,.763-.763,2.483,2.483,0,0,0,.305-1.068,2.13,2.13,0,0,0-.61-1.526A2.423,2.423,0,0,0,200.623,76.187Z" transform="translate(-188.731 -73.374)" />
			<path class="a" d="M206.9,75.653h.687v.915a1.829,1.829,0,0,1,.763-.763,1.987,1.987,0,0,1,1.144-.305,2.711,2.711,0,0,1,.763.153,1.661,1.661,0,0,1,.61.381,1.423,1.423,0,0,1,.381.763,2.755,2.755,0,0,1,.839-.992,1.839,1.839,0,0,1,1.144-.305,1.533,1.533,0,0,1,.992.305,1.212,1.212,0,0,1,.61.763,3.752,3.752,0,0,1,.229,1.526v2.975h-.687V78.094a3.918,3.918,0,0,0-.153-1.221,1.026,1.026,0,0,0-.458-.534,1.231,1.231,0,0,0-.687-.229,1.466,1.466,0,0,0-.915.305,1.937,1.937,0,0,0-.61.763,4.368,4.368,0,0,0-.229,1.678v2.136h-.687V78.246a4.137,4.137,0,0,0-.153-1.3.807.807,0,0,0-.458-.534,1.231,1.231,0,0,0-.687-.229,1.466,1.466,0,0,0-.915.305,1.937,1.937,0,0,0-.61.763,3.752,3.752,0,0,0-.229,1.526v2.289H206.9Z" transform="translate(-190.828 -73.374)" />
			<path class="a" d="M220.31,81.3a1.084,1.084,0,0,1,.458.153c.153.153.153.229.153.458a1.085,1.085,0,0,1-.153.458c-.153.153-.229.153-.458.153a1.084,1.084,0,0,1-.458-.153c-.153-.153-.153-.229-.153-.458a1.085,1.085,0,0,1,.153-.458A.645.645,0,0,1,220.31,81.3Z" transform="translate(-193.824 -74.75)" />
			<path class="a" d="M223.2,80.593V72.9h.687v3.108a3.44,3.44,0,0,1,.992-.855,3.152,3.152,0,0,1,1.221-.311,2.746,2.746,0,0,1,1.984.855,2.9,2.9,0,0,1,.839,2.1,2.848,2.848,0,0,1-.839,2.02,2.746,2.746,0,0,1-1.984.855,2.207,2.207,0,0,1-1.221-.311,1.955,1.955,0,0,1-.915-.855v1.01Zm2.823-.544a1.728,1.728,0,0,0,1.068-.311,2.054,2.054,0,0,0,.763-.855,1.97,1.97,0,0,0,.305-1.088,1.809,1.809,0,0,0-.305-1.088,2.753,2.753,0,0,0-.763-.855,1.99,1.99,0,0,0-2.136,0,2.448,2.448,0,0,0-.763.777,2.612,2.612,0,0,0-.305,1.166,2.535,2.535,0,0,0,.61,1.632A2.11,2.11,0,0,0,226.023,80.049Z" transform="translate(-194.584 -72.9)" />
			<path class="a" d="M231.9,75.653h.687v.763a2.913,2.913,0,0,1,.687-.687,1.289,1.289,0,0,1,.763-.229,1.8,1.8,0,0,1,.61.153l-.381.61a.829.829,0,0,0-.381-.076.932.932,0,0,0-.687.305,1.493,1.493,0,0,0-.458.915,8.7,8.7,0,0,0-.153,1.907v1.831H231.9Z" transform="translate(-196.646 -73.374)" />
		</g>
	</g>
	<g id="layer_car" transform="translate(0.029 -0.042)">
		<path class="b" d="M2.053,51.042A1.785,1.785,0,0,1,.374,49.749c-.076-.456-.915-4.411.076-6.921A9.855,9.855,0,0,0,.68,41.687c.458-3.422,1.373-10.647,13.961-16.58A64.646,64.646,0,0,1,33.255,19.48c3.433-.608,6.408-1.065,9.612-2.586l1.068-.532C58.659,9.365,76.282,1.3,81.7,1.3c.992,0,2.594-.152,4.73-.3a175.748,175.748,0,0,1,39.136.3c8.239,1.065,19.072,6.084,27.006,9.811a80.314,80.314,0,0,0,8.926,3.8c4.883,1.141,13.2,2.053,13.274,2.053l1.526.152v1.521c0,2.662.305,10.343,2.06,13.766,2.365,4.411,1.6,6.617.992,7.453L176.3,47.087a1.692,1.692,0,0,1-3.128-1.293l3.28-7.833.076-.076c.076-.38,0-1.6-1.221-3.879-1.984-3.8-2.365-10.8-2.441-13.842a120.32,120.32,0,0,1-12.13-1.977c-1.907-.456-5.264-2.053-9.612-4.031-7.705-3.575-18.309-8.518-25.938-9.507a179.391,179.391,0,0,0-38.45-.3c-2.289.228-3.967.3-5.035.3-3.586,0-15.792,4.943-36.314,14.754l-1.144.532a36.968,36.968,0,0,1-10.528,2.89,60.546,60.546,0,0,0-17.7,5.324C5.181,33.245,4.494,39.025,4.036,42.067a7,7,0,0,1-.381,1.977c-.458,1.217-.153,3.879.076,4.943a1.725,1.725,0,0,1-1.3,2.053Z" transform="translate(0 0)" />
	</g>
</svg>
