<svg xmlns="http://www.w3.org/2000/svg" viewBox="0 0 180 66">
  <defs>
    <style>
      .letter {
        fill: #010101;
      }

      .car {
        fill: #fecf0a;
      }
    </style>
  </defs>
  <g id="SNBH_LOGO" transform="translate(0.001 -0.011)">
    <g id="layer_letters" data-name="Layer 1" transform="translate(-0.001 0.011)">
      <path id="Path_1" data-name="Path 1" class="letter" d="M9.63,55.325l1.4-.855q1.48,2.746,3.4,2.746a3.193,3.193,0,0,0,1.557-.393,2.739,2.739,0,0,0,1.5-2.429,2.807,2.807,0,0,0-.561-1.634A13.641,13.641,0,0,0,14.1,50.1a14.325,14.325,0,0,1-2.552-2.267,4.164,4.164,0,0,1-.851-2.566,3.849,3.849,0,0,1,.519-1.976,3.692,3.692,0,0,1,1.421-1.377,4.183,4.183,0,0,1,2.041-.513,4.353,4.353,0,0,1,2.178.582A7.481,7.481,0,0,1,19,44.12L17.66,45.147a6.519,6.519,0,0,0-1.582-1.634,2.727,2.727,0,0,0-1.429-.393,2.221,2.221,0,0,0-1.633.607,1.981,1.981,0,0,0-.638,1.5,2.578,2.578,0,0,0,.23,1.052,3.8,3.8,0,0,0,.851,1.1c.213.214.927.761,2.127,1.659a12.1,12.1,0,0,1,2.943,2.831,4.568,4.568,0,0,1,.774,2.5,4.237,4.237,0,0,1-1.361,3.139,4.58,4.58,0,0,1-3.309,1.326,4.846,4.846,0,0,1-2.73-.8,7.355,7.355,0,0,1-2.271-2.7Z" transform="translate(-1.438 -5.997)"/>
      <path id="Path_2" data-name="Path 2" class="letter" d="M25.1,41.9h9.45v1.625H26.715v5.2h7.732v1.625H26.715v6.518h7.732v1.617H25.09Z" transform="translate(-3.747 -6.07)"/>
      <path id="Path_3" data-name="Path 3" class="letter" d="M38.68,58.486,41.036,41.9h.272l6.7,13.609L54.655,41.9h.264l2.373,16.586H55.675L54.042,46.622,48.215,58.486H47.79l-5.9-11.975L40.271,58.486Z" transform="translate(-5.778 -6.07)"/>
      <path id="Path_4" data-name="Path 4" class="letter" d="M64.09,41.9h1.625V58.486H64.09Z" transform="translate(-9.573 -6.07)"/>
      <path id="Path_5" data-name="Path 5" class="letter" d="M70.49,58.486V41.9h.357L81.829,54.619V41.9h1.625V58.486h-.374L72.191,45.929V58.486Z" transform="translate(-10.529 -6.07)"/>
      <path id="Path_6" data-name="Path 6" class="letter" d="M98.168,41.409a8.541,8.541,0,0,1,6.278,2.515A8.737,8.737,0,0,1,92.112,56.3a8.329,8.329,0,0,1-2.552-6.116,8.892,8.892,0,0,1,1.148-4.431,8.458,8.458,0,0,1,7.46-4.345Zm.077,1.617a7.028,7.028,0,0,0-6.031,3.541,7.251,7.251,0,0,0-.919,3.627,7,7,0,0,0,2.018,4.972,6.922,6.922,0,0,0,4.932,2.059,7.046,7.046,0,0,0,3.6-.941,6.739,6.739,0,0,0,2.552-2.566,7.321,7.321,0,0,0,.851-3.61,7.08,7.08,0,0,0-.851-3.567,6.875,6.875,0,0,0-2.552-2.566A6.953,6.953,0,0,0,98.245,43.026Z" transform="translate(-13.378 -5.998)"/>
      <path id="Path_7" data-name="Path 7" class="letter" d="M112.44,41.9h1.795L119.7,54.731,125.259,41.9h1.795l-7.179,16.586h-.357Z" transform="translate(-16.796 -6.07)"/>
      <path id="Path_8" data-name="Path 8" class="letter" d="M140.6,41.409a8.481,8.481,0,0,1,6.269,2.515A8.74,8.74,0,0,1,134.522,56.3a8.355,8.355,0,0,1-2.552-6.116,8.892,8.892,0,0,1,1.148-4.431,8.5,8.5,0,0,1,7.434-4.354Zm.068,1.617a6.776,6.776,0,0,0-3.471.958,6.892,6.892,0,0,0-2.552,2.566,7.251,7.251,0,0,0-.944,3.644,7.017,7.017,0,0,0,2.023,4.967,6.939,6.939,0,0,0,4.927,2.064,7.021,7.021,0,0,0,3.556-.941,6.739,6.739,0,0,0,2.552-2.566,7.242,7.242,0,0,0,.919-3.618,7,7,0,0,0-.919-3.567,6.971,6.971,0,0,0-6.09-3.507Z" transform="translate(-19.713 -5.997)"/>
      <path id="Path_9" data-name="Path 9" class="letter" d="M154.34,55.325l1.4-.855q1.48,2.746,3.4,2.746a3.218,3.218,0,0,0,1.557-.393,2.749,2.749,0,0,0,1.489-2.429,2.807,2.807,0,0,0-.561-1.634A13.24,13.24,0,0,0,158.8,50.1a14.657,14.657,0,0,1-2.552-2.267,4.164,4.164,0,0,1-.851-2.566,3.848,3.848,0,0,1,.519-1.976,3.658,3.658,0,0,1,1.438-1.377,4.15,4.15,0,0,1,2.033-.513,4.328,4.328,0,0,1,2.178.582,7.5,7.5,0,0,1,2.152,2.138l-1.352,1.026a6.374,6.374,0,0,0-1.582-1.634,2.685,2.685,0,0,0-1.429-.393,2.247,2.247,0,0,0-1.633.607,1.981,1.981,0,0,0-.629,1.5,2.578,2.578,0,0,0,.221,1.052,4.145,4.145,0,0,0,.851,1.1c.221.214.927.761,2.135,1.659a11.878,11.878,0,0,1,2.935,2.831,4.577,4.577,0,0,1,.8,2.489,4.288,4.288,0,0,1-1.361,3.139,4.6,4.6,0,0,1-3.317,1.326,4.8,4.8,0,0,1-2.722-.8,7.277,7.277,0,0,1-2.288-2.694Z" transform="translate(-23.055 -5.997)"/>
      <path id="Path_10" data-name="Path 10" class="letter" d="M169.64,58.484V41.9h2.594a13.765,13.765,0,0,1,3.3.291,4.395,4.395,0,0,1,2.356,1.505,3.846,3.846,0,0,1,.851,2.523,3.7,3.7,0,0,1-.391,1.711,4.456,4.456,0,0,1-1.3,1.454,5.167,5.167,0,0,1,2.254,1.745,4.535,4.535,0,0,1,.689,2.566,4.741,4.741,0,0,1-.715,2.566,4.654,4.654,0,0,1-1.854,1.711,7.118,7.118,0,0,1-3.13.565Zm3.139-13.575v3.5h.689a2.542,2.542,0,0,0,1.7-.488,1.715,1.715,0,0,0,.553-1.317,1.544,1.544,0,0,0-.527-1.232,2.406,2.406,0,0,0-1.608-.462Zm0,6.313V55.5h.791a4.817,4.817,0,0,0,2.637-.5,1.714,1.714,0,0,0,.68-1.437,2.014,2.014,0,0,0-.8-1.711,4.361,4.361,0,0,0-2.654-.624Z" transform="translate(-25.341 -6.068)"/>
      <path id="Path_11" data-name="Path 11" class="letter" d="M185.286,41.9h3.156v6.261h5.512V41.9h3.173V58.486h-3.173V51.215h-5.512v7.271H185.26Z" transform="translate(-27.674 -6.07)"/>
      <path id="Path_12" data-name="Path 12" class="letter" d="M167.361,75.67a.612.612,0,0,1,.612.624.592.592,0,0,1-.179.436.619.619,0,0,1-.434.18.585.585,0,0,1-.434-.18.575.575,0,0,1-.187-.436.623.623,0,0,1,.621-.624Z" transform="translate(-24.908 -10.954)"/>
      <path id="Path_13" data-name="Path 13" class="letter" d="M175.1,71.7l-.553.342a2.318,2.318,0,0,0-1.956-.949,2.281,2.281,0,0,0-1.642.633,2.084,2.084,0,0,0-.655,1.557,2.285,2.285,0,0,0,.3,1.129,2.158,2.158,0,0,0,.851.855,2.4,2.4,0,0,0,1.182.291,2.369,2.369,0,0,0,1.948-.958l.553.368a2.633,2.633,0,0,1-1.038.915,3.387,3.387,0,0,1-1.5.316,2.951,2.951,0,0,1-2.135-.855,2.684,2.684,0,0,1-.851-1.993A2.86,2.86,0,0,1,170,71.876a2.771,2.771,0,0,1,1.089-1.061,3.15,3.15,0,0,1,1.548-.385,3.309,3.309,0,0,1,1.046.171,2.741,2.741,0,0,1,.851.428,2.383,2.383,0,0,1,.57.667Z" transform="translate(-25.336 -10.196)"/>
      <path id="Path_14" data-name="Path 14" class="letter" d="M180.173,70.42a2.69,2.69,0,0,1,2.076.915,2.946,2.946,0,0,1-.043,3.969,2.872,2.872,0,0,1-4.074,0,2.946,2.946,0,0,1-.043-3.969A2.681,2.681,0,0,1,180.173,70.42Zm0,.684a2.028,2.028,0,0,0-1.5.65,2.268,2.268,0,0,0-.332,2.669,2,2,0,0,0,.766.787,2.159,2.159,0,0,0,2.135,0,2,2,0,0,0,.766-.787,2.268,2.268,0,0,0,.289-1.1,2.162,2.162,0,0,0-.629-1.565,2.028,2.028,0,0,0-1.506-.65Z" transform="translate(-26.491 -10.194)"/>
      <path id="Path_15" data-name="Path 15" class="letter" d="M185.5,70.565h.7v.941a2.645,2.645,0,0,1,.749-.761,2.109,2.109,0,0,1,1.114-.325,1.863,1.863,0,0,1,.749.154,1.634,1.634,0,0,1,.578.419,2.348,2.348,0,0,1,.391.736,2.562,2.562,0,0,1,.851-.975,2.05,2.05,0,0,1,1.123-.334,1.7,1.7,0,0,1,1.633,1.086,4.342,4.342,0,0,1,.2,1.531v3.011h-.706V73.037a3.844,3.844,0,0,0-.128-1.206,1.119,1.119,0,0,0-.425-.53,1.313,1.313,0,0,0-.715-.2,1.576,1.576,0,0,0-.927.3,1.71,1.71,0,0,0-.612.8,4.885,4.885,0,0,0-.2,1.668v2.173h-.7V73.225a4.653,4.653,0,0,0-.128-1.343,1.052,1.052,0,0,0-.425-.565,1.186,1.186,0,0,0-.723-.214,1.551,1.551,0,0,0-.9.291,1.769,1.769,0,0,0-.621.787,4.3,4.3,0,0,0-.2,1.523v2.344h-.7Z" transform="translate(-27.707 -10.194)"/>
      <path id="Path_16" data-name="Path 16" class="letter" d="M197.552,75.67a.585.585,0,0,1,.434.18.626.626,0,0,1,.187.445.6.6,0,0,1-.187.436.585.585,0,0,1-.434.18.619.619,0,0,1-.434-.18.592.592,0,0,1-.179-.436.612.612,0,0,1,.612-.624Z" transform="translate(-29.419 -10.954)"/>
      <path id="Path_17" data-name="Path 17" class="letter" d="M200.14,75.716v-7.6h.732v3.045a2.861,2.861,0,0,1,.978-.8,2.728,2.728,0,0,1,3.156.565,2.92,2.92,0,0,1,0,4.063,2.664,2.664,0,0,1-1.973.855,2.54,2.54,0,0,1-1.2-.282,2.735,2.735,0,0,1-.953-.855v1.009Zm2.79-.539a2.074,2.074,0,0,0,1.854-1.095,2.252,2.252,0,0,0,0-2.207,2.151,2.151,0,0,0-.791-.855,2.025,2.025,0,0,0-1.055-.291,2.168,2.168,0,0,0-1.089.291,2.064,2.064,0,0,0-.791.787,2.32,2.32,0,0,0-.272,1.121,2.171,2.171,0,0,0,.621,1.582,2.019,2.019,0,0,0,1.523.633Z" transform="translate(-29.897 -9.862)"/>
      <path id="Path_18" data-name="Path 18" class="letter" d="M208,70.565h.715v.8a2.559,2.559,0,0,1,.672-.71,1.322,1.322,0,0,1,.74-.231,1.228,1.228,0,0,1,.612.188l-.366.59a1,1,0,0,0-.366-.094.984.984,0,0,0-.672.291,1.807,1.807,0,0,0-.493.855,8.737,8.737,0,0,0-.128,1.882v1.916H208Z" transform="translate(-31.071 -10.194)"/>
    </g>
    <g id="layer_car" data-name="Layer 1" transform="translate(-0.001 0.011)">
      <path id="Path_19" data-name="Path 19" class="car" d="M2.075,51.435A1.7,1.7,0,0,1,.417,50.1c-.1-.453-.936-4.439.085-7a9.724,9.724,0,0,0,.2-1.189c.451-3.49,1.4-10.752,13.984-16.7a63.916,63.916,0,0,1,18.611-5.654,33.751,33.751,0,0,0,9.595-2.609l1.106-.53C58.692,9.411,76.266,1.259,81.753,1.259c.961,0,2.628-.145,4.746-.325a177.246,177.246,0,0,1,39.128.334c8.208,1.061,19.054,6.167,26.965,9.888a70.268,70.268,0,0,0,8.923,3.832c4.874,1.121,13.2,2.1,13.287,2.1l1.523.18V18.82c-.043,2.694.264,10.436,2.067,13.857,2.356,4.456,1.608,6.638.961,7.536l-3.02,7.322a1.711,1.711,0,1,1-3.147-1.343l3.266-7.921.111-.094c.094-.393,0-1.642-1.182-3.935-2.016-3.815-2.4-10.855-2.458-13.968-2.671-.342-8.328-1.1-12.155-1.984-1.9-.436-5.3-2.036-9.6-4.072-7.715-3.627-18.271-8.554-25.961-9.589a174.954,174.954,0,0,0-38.439-.291c-2.288.2-3.93.342-5.036.342-3.59,0-15.8,4.987-36.287,14.832l-1.114.539a37.952,37.952,0,0,1-10.5,2.9,59.884,59.884,0,0,0-17.667,5.372C5.231,33.472,4.474,39.263,4.074,42.368a9.034,9.034,0,0,1-.417,2.01c-.493,1.24-.162,3.892.085,4.978a1.719,1.719,0,0,1-.225,1.292A1.7,1.7,0,0,1,2.45,51.4a1.9,1.9,0,0,1-.374.034Z" transform="translate(0.001 -0.011)"/>
    </g>
  </g>
</svg>
