<?xml version="1.0" encoding="UTF-8" standalone="no"?>
<!-- Generator: Adobe Illustrator 14.0.0, SVG Export Plug-In . SVG Version: 6.00 Build 43363)  -->

<svg
   xmlns:dc="http://purl.org/dc/elements/1.1/"
   xmlns:cc="http://creativecommons.org/ns#"
   xmlns:rdf="http://www.w3.org/1999/02/22-rdf-syntax-ns#"
   xmlns:svg="http://www.w3.org/2000/svg"
   xmlns="http://www.w3.org/2000/svg"
   xmlns:sodipodi="http://sodipodi.sourceforge.net/DTD/sodipodi-0.dtd"
   xmlns:inkscape="http://www.inkscape.org/namespaces/inkscape"
   version="1.1"
   id="Layer_1"
   x="0px"
   y="0px"
   width="666"
   height="395"
   viewBox="0 0 666.00002 394.99999"
   enable-background="new 0 0 1275.59 901.89"
   xml:space="preserve">
<rect
   style="fill:#ffffff"
   x="221.03326"
   y="-1.6534204e-05"
   width="223.8461"
   height="223.83737"
   id="rect167-7" /><rect
   style="fill:#e1393e"
   x="221.03326"
   y="-1.6534204e-05"
   width="223.8461"
   height="223.83737"
   id="rect169-4" /><polyline
   style="fill:#ffffff"
   points="315.894,810.261 327.851,800.01 339.81,810.261 327.851,794.508 315.894,810.261 "
   id="polyline171-0"
   transform="matrix(8.7354577,0,0,8.7354577,-2530.9766,-6861.6146)" /><polyline
   style="fill:#ffffff"
   points="327.851,786.344 315.894,802.096 327.851,791.846 339.812,802.096 327.851,786.344 "
   id="polyline173-9"
   transform="matrix(8.7354577,0,0,8.7354577,-2530.9766,-6861.6146)" /><path
   style="fill:#231f20"
   d="m 57.653993,394.38851 c -31.797066,0 -57.6540208328,-26.15396 -57.6540208328,-58.57124 0,-32.26878 25.8569548328,-58.57124 57.6540208328,-58.57124 20.991305,0 39.40565,11.31241 49.599927,28.44265 L 86.865364,317.76981 C 81.082491,308.1346 69.822486,301.1113 57.653993,301.1113 c -18.257107,0 -34.225523,16.20427 -34.225523,34.7147 0,18.65894 15.968416,34.71471 34.225523,34.71471 12.168493,0 23.577,-6.88354 29.211371,-16.96426 l 20.537056,12.22091 c -10.194275,17.1215 -28.599884,28.59115 -49.748427,28.59115 m 83.825457,-2.75167 H 116.83672 V 280.31217 h 24.64273 v 111.32467 z m 66.78257,0.0524 h -24.64273 v -87.83503 h -34.99424 v -23.54206 h 94.62248 v 23.54206 h -34.98551 v 87.83503 z m 65.71685,-60.3096 h 26.61694 c 9.28579,0 17.33988,-3.82613 17.33988,-14.67557 0,-10.85818 -7.45134,-15.14729 -17.33988,-15.14729 h -26.61694 v 29.82286 z m 0,20.33614 v 39.91231 H 250.09613 V 280.30344 h 54.0026 c 23.7255,0 37.87694,13.29536 37.87694,36.09491 0,18.19596 -9.12855,29.66561 -24.18848,33.64024 l 29.05413,41.59825 h -27.98841 l -25.70845,-39.9123 H 273.97887 z M 407.84976,395 c -32.25131,0 -58.42274,-26.60821 -58.42274,-58.72849 0,-32.26878 26.17143,-58.72848 58.42274,-58.72848 32.39981,0 59.17399,26.30246 59.17399,58.72848 0,32.12902 -26.77418,58.72849 -59.17399,58.72849 z m 0,-92.82298 c -18.86859,0 -33.92852,15.44429 -33.92852,34.40897 0,18.6502 15.36567,33.78875 33.92852,33.78875 18.71135,0 33.91978,-15.13855 33.91978,-33.78875 0,-18.97341 -14.91143,-34.40897 -33.91978,-34.40897 z m 102.37956,-34.40897 c 0,5.3461 -4.86565,9.64395 -10.19428,9.64395 -5.47713,0 -9.43429,-4.28911 -9.43429,-9.64395 0,-5.35483 4.2629,-9.79244 9.74003,-9.79244 5.3199,0 9.88854,4.43761 9.88854,9.79244 z m 35.44849,0 c 0,5.3461 -4.71715,9.64395 -10.19428,9.64395 -5.32863,0 -9.27706,-4.28911 -9.27706,-9.64395 0,-5.35483 4.25417,-9.79244 9.5828,-9.79244 5.31989,0 9.88854,4.43761 9.88854,9.79244 z m -45.49427,34.71471 v 20.94763 h 52.78838 v 20.33615 h -52.78838 v 24.77375 h 59.78548 v 23.09655 h -83.51098 c 0,0 0,-100.62373 0,-100.47523 v -10.84944 h 83.51098 v 22.17059 h -59.78548 z m 92.64827,15.89854 v 73.25554 H 568.79183 V 280.31217 h 29.06287 l 43.96556,75.22976 V 280.31217 H 666 V 391.63684 H 636.34312 L 592.83181,318.3813 z"
   id="path175-4" /></svg>