<svg xmlns="http://www.w3.org/2000/svg" viewBox="0 0 136 45.333">
  <defs>
    <style>
      .cls-1 {
        fill: #fff;
      }

      .cls-2 {
        fill: #f48120;
      }

      .cls-3 {
        fill: #faad3f;
      }

      .cls-4 {
        fill: #404041;
      }
    </style>
  </defs>
  <g id="ico_cloudflare" transform="translate(-3.9 -3.6)">
    <path id="Path_596" data-name="Path 596" class="cls-1" d="M109.621,14.8l-7.511-1.759-1.341-.541L66.3,12.771v16.78l43.321.135Z" transform="translate(21.292 3.144)"/>
    <path id="Path_597" data-name="Path 597" class="cls-2" d="M99.429,31.206a3.893,3.893,0,0,0-.4-3.518A4.139,4.139,0,0,0,96.21,26.2l-23.337-.271c-.134,0-.268-.135-.4-.135a.255.255,0,0,1,0-.406c.134-.271.268-.406.536-.406l23.471-.271a8.448,8.448,0,0,0,6.84-5.142l1.341-3.518c0-.135.134-.271,0-.406A15.249,15.249,0,0,0,75.287,14.02a7.275,7.275,0,0,0-4.828-1.353,7.018,7.018,0,0,0-6.17,6.225,7.457,7.457,0,0,0,.134,2.436A9.84,9.84,0,0,0,54.9,31.206a5.6,5.6,0,0,0,.134,1.489.43.43,0,0,0,.4.406H98.49c.268,0,.536-.135.536-.406Z" transform="translate(17.402)"/>
    <path id="Path_598" data-name="Path 598" class="cls-3" d="M95.183,12.8h-.671c-.134,0-.268.135-.4.271l-.939,3.248a3.893,3.893,0,0,0,.4,3.518,4.139,4.139,0,0,0,2.817,1.489l4.963.271c.134,0,.268.135.4.135a.255.255,0,0,1,0,.406c-.134.271-.268.406-.536.406l-5.1.271a8.448,8.448,0,0,0-6.84,5.142l-.268,1.218c-.134.135,0,.406.268.406h17.7a.357.357,0,0,0,.4-.406,14.833,14.833,0,0,0,.536-3.518A12.88,12.88,0,0,0,95.183,12.8" transform="translate(29.025 3.25)"/>
    <path id="Path_599" data-name="Path 599" class="cls-4" d="M138.693,31.506a1.218,1.218,0,1,1,1.207-1.218,1.208,1.208,0,0,1-1.207,1.218m0-2.165a.947.947,0,1,0,.939.947.921.921,0,0,0-.939-.947m.536,1.624h-.268l-.268-.406h-.268v.406h-.268V29.747h.671a.357.357,0,0,1,.4.406c0,.135-.134.271-.268.406l.268.406Zm-.4-.677c.134,0,.134,0,.134-.135a.132.132,0,0,0-.134-.135h-.4v.406h.4ZM18.519,29.071H21.47V37.19h5.1v2.571H18.519Zm11.132,5.278A5.528,5.528,0,0,1,35.419,28.8a5.415,5.415,0,0,1,5.633,5.548A5.528,5.528,0,0,1,35.285,39.9a5.494,5.494,0,0,1-5.633-5.548m8.45,0a2.772,2.772,0,0,0-2.682-2.977,2.847,2.847,0,0,0,0,5.684c1.609.271,2.682-1.083,2.682-2.706m6.572.677V29.071h2.951v5.954c0,1.489.8,2.3,2.012,2.3a1.886,1.886,0,0,0,2.012-2.165v-6.09H54.6v5.954c0,3.518-2.012,5.007-4.963,5.007-3.085-.135-4.963-1.624-4.963-5.007m14.351-5.954h4.158c3.755,0,6.035,2.165,6.035,5.278s-2.28,5.413-6.035,5.413H59.158V29.071Zm4.158,7.984c1.744,0,2.951-.947,2.951-2.706s-1.207-2.706-2.951-2.706H61.975v5.413Zm10.193-7.984h8.45v2.571h-5.5V33.4h4.963v2.436H76.326v3.924H73.375Zm12.607,0h2.951V37.19h5.1v2.571H85.983Zm15.692-.135h2.951l4.56,10.826h-3.219l-.8-1.895H101l-.8,1.895H97.115l4.56-10.826Zm2.682,6.631-1.207-2.977-1.207,2.977Zm8.584-6.5H117.9a4.561,4.561,0,0,1,3.487,1.218,3.567,3.567,0,0,1-1.207,5.684l2.548,3.789h-3.353l-2.146-3.248h-1.341v3.248h-2.951V29.071Zm4.828,5.142c.939,0,1.609-.541,1.609-1.218,0-.812-.671-1.218-1.609-1.218h-1.878v2.571h1.878Zm8.718-5.142h8.584v2.436h-5.633V33.13h5.1v2.436h-5.1V37.19h5.767v2.571h-8.718ZM12.081,35.7a2.649,2.649,0,0,1-2.414,1.624,2.847,2.847,0,0,1,0-5.684A2.814,2.814,0,0,1,12.216,33.4H15.3a5.556,5.556,0,0,0-5.633-4.466A5.609,5.609,0,0,0,3.9,34.484a5.494,5.494,0,0,0,5.633,5.548,5.8,5.8,0,0,0,5.633-4.33Z" transform="translate(0 8.901)"/>
  </g>
</svg>
