<?xml version="1.0" encoding="UTF-8" standalone="no"?>
<!-- Generator: Adobe Illustrator 12.0.0, SVG Export Plug-In . SVG Version: 6.00 Build 51448)  -->

<svg
   xmlns:dc="http://purl.org/dc/elements/1.1/"
   xmlns:cc="http://creativecommons.org/ns#"
   xmlns:rdf="http://www.w3.org/1999/02/22-rdf-syntax-ns#"
   xmlns:svg="http://www.w3.org/2000/svg"
   xmlns="http://www.w3.org/2000/svg"
   xmlns:sodipodi="http://sodipodi.sourceforge.net/DTD/sodipodi-0.dtd"
   xmlns:inkscape="http://www.inkscape.org/namespaces/inkscape"
   version="1.1"
   id="Layer_1"
   width="1000"
   height="600.50201"
   viewBox="0 0 999.99997 600.50204"
   overflow="visible"
   enable-background="new 0 0 371.549 47.788"
   xml:space="preserve"
   sodipodi:docname="Hyundai (Stacked).svg"
   style="overflow:visible"
   inkscape:version="0.92.2 (5c3e80d, 2017-08-06)"><metadata
     id="metadata839"><rdf:RDF><cc:Work
         rdf:about=""><dc:format>image/svg+xml</dc:format><dc:type
           rdf:resource="http://purl.org/dc/dcmitype/StillImage" /><dc:title></dc:title></cc:Work></rdf:RDF></metadata><defs
     id="defs837" /><sodipodi:namedview
     pagecolor="#ffffff"
     bordercolor="#666666"
     borderopacity="1"
     objecttolerance="10"
     gridtolerance="10"
     guidetolerance="10"
     inkscape:pageopacity="0"
     inkscape:pageshadow="2"
     inkscape:window-width="1366"
     inkscape:window-height="705"
     id="namedview835"
     showgrid="false"
     inkscape:zoom="0.29807642"
     inkscape:cx="313.03914"
     inkscape:cy="243.25705"
     inkscape:window-x="-8"
     inkscape:window-y="-8"
     inkscape:window-maximized="1"
     inkscape:current-layer="Layer_1" /><g
     style="overflow:visible"
     id="g2821"
     transform="matrix(3.1153466,0,0,3.1153466,199.86719,137.9174)"><polygon
       transform="matrix(1.8264308,0,0,1.8264308,-79.68765,-100.83666)"
       points="26.685,126.014 14.269,126.014 14.269,136.508 8.504,136.508 8.504,111.086 14.269,111.086 14.269,121.137 26.685,121.137 26.685,111.086 32.302,111.086 32.302,136.508 26.685,136.508 "
       id="polygon2708"
       style="clip-rule:evenodd;fill:#0065ad;fill-rule:evenodd" /><polygon
       transform="matrix(1.8264308,0,0,1.8264308,-79.68765,-100.83666)"
       points="178.635,111.086 178.635,136.508 184.252,136.508 184.252,111.086 "
       id="polygon2710"
       style="clip-rule:evenodd;fill:#0065ad;fill-rule:evenodd" /><path
       d="m 70.287888,135.80119 c 0,2.96795 -0.538797,3.77706 -3.240088,3.77706 -2.969776,0 -18.627767,0 -18.627767,0 V 102.05423 H 38.160971 v 46.43152 h 33.746962 c 0,0 8.639017,-0.53879 8.639017,-10.25541 0,-9.9924 0,-36.17611 0,-36.17611 H 70.287888 c 0,0 0,31.58447 0,33.74696 z"
       id="path2712"
       style="clip-rule:evenodd;fill:#0065ad;fill-rule:evenodd"
       inkscape:connector-curvature="0" /><path
       d="m 122.12199,148.48575 h 10.52938 c 0,0 0,-26.18736 0,-36.17611 0,-9.71661 -8.90933,-10.25541 -8.90933,-10.25541 H 89.995077 v 46.43152 h 10.529373 v -37.52402 c 0,0 15.38951,0 18.35928,0 2.69947,0 3.23826,0.80911 3.23826,3.78071 0,2.15884 0,33.74331 0,33.74331 z"
       id="path2714"
       style="clip-rule:evenodd;fill:#0065ad;fill-rule:evenodd"
       inkscape:connector-curvature="0" /><polygon
       transform="matrix(1.8264308,0,0,1.8264308,-79.68765,-100.83666)"
       points="45.752,136.508 51.37,136.508 51.37,127.344 62.308,111.086 55.212,111.086 48.413,121.875 41.614,111.086 34.667,111.086 45.752,127.492 "
       id="polygon2716"
       style="clip-rule:evenodd;fill:#0065ad;fill-rule:evenodd" /><path
       d="m 141.82918,148.48575 c 0,0 24.29701,0 33.20634,0 8.90933,0 9.71844,-9.17781 9.71844,-9.17781 v -28.07407 c 0,0 -0.80911,-9.17781 -9.71844,-9.17781 -8.90933,0 -33.20634,0 -33.20634,0 z m 32.39541,-12.68456 c 0,0 0,3.77706 -3.23827,3.77706 -2.42915,0 -18.89808,0 -18.89808,0 v -28.61652 c 0,0 16.46893,0 18.89808,0 3.23827,0 3.23827,3.78071 3.23827,3.78071 z"
       id="path2718"
       style="clip-rule:evenodd;fill:#0065ad;fill-rule:evenodd"
       inkscape:connector-curvature="0" /><path
       d="m 237.66931,102.05423 v 46.43152 H 227.13994 V 134.9866 h -23.21759 v 13.49915 h -10.25906 v -34.55242 c 0,-12.42155 11.33848,-11.8791 11.33848,-11.8791 z m -10.52937,24.29701 v -15.38951 h -19.70902 c 0,0 -3.50857,0 -3.50857,4.31951 0,3.77706 0,11.07 0,11.07 z"
       id="path2720"
       style="clip-rule:evenodd;fill:#0065ad;fill-rule:evenodd"
       inkscape:connector-curvature="0" /><path
       d="m 215.53114,15.932538 c 0,32.936026 -53.45415,59.9325 -119.055887,59.9325 -65.872053,0 -119.055891,-26.996474 -119.055891,-59.9325 0,-33.206339 53.183838,-60.202813 119.055891,-60.202813 65.601737,0 119.055887,26.996474 119.055887,60.202813 z M 90.806012,7.5638316 C 101.06507,5.6734757 111.05382,2.1649021 118.88373,-0.80487435 144.26016,-9.7142038 156.13744,-18.892019 158.56842,-21.052686 c 3.24009,-2.969777 0.81094,-4.049197 -2.15884,-5.130444 -17.27986,-5.130444 -43.4654,-8.90933 -60.202812,-8.098394 -12.149418,0.268485 -18.89808,13.49915 -21.597544,19.168391 C 61.919183,11.613029 84.596147,8.9135639 90.806012,7.5638316 Z M 13.054853,45.358164 C 13.59365,44.278744 33.57115,-2.4267449 57.05905,-27.803174 60.027,-30.502639 56.788738,-31.043263 53.009853,-30.234154 14.1361,-22.67273 -12.8622,-4.8540714 -12.8622,15.664052 c 0,11.338483 8.098394,21.867856 21.5975441,30.236562 1.8903559,1.079421 3.7788849,0.268485 4.3195089,-0.54245 z M 101.87418,24.032758 c -10.259059,1.890356 -20.247809,5.39893 -28.077718,8.368706 -25.376429,8.909329 -37.255535,18.357456 -39.684688,20.518124 -3.240089,2.699464 -0.810936,4.049197 2.158841,4.860132 17.278035,5.128618 43.4654,8.907503 60.202812,8.368706 C 108.62102,65.609629 115.37151,52.378964 118.34128,46.709723 130.76101,19.981735 108.08405,22.951511 101.87418,24.032758 Z m 103.66821,-8.10022 c 0,-11.3384829 -7.8299,-21.5975447 -21.59754,-29.966251 -1.88853,-1.349732 -3.50857,-0.540623 -4.31951,0.538797 -0.5388,0.809109 -20.5163,47.514598 -44.0042,72.891027 -2.70129,2.969777 0.26849,3.508574 4.0492,2.699465 38.87558,-7.828082 65.87205,-25.644915 65.87205,-46.163038 z"
       id="path2722"
       style="clip-rule:evenodd;fill:#0065ad;fill-rule:evenodd"
       inkscape:connector-curvature="0" /></g></svg>